<?xml version="1.0" encoding="utf-8"?>
<!-- Generator: Adobe Illustrator 23.0.0, SVG Export Plug-In . SVG Version: 6.00 Build 0)  -->
<svg version="1.1" id="Warstwa_1" xmlns="http://www.w3.org/2000/svg" xmlns:xlink="http://www.w3.org/1999/xlink" x="0px" y="0px"
	 viewBox="0 0 900 500" style="enable-background:new 0 0 900 500;" xml:space="preserve">
<style type="text/css">
	.st0{fill:#5EB3E4;}
	.st1{fill:#0056B8;}
	.st2{fill:#FFB71B;}
	.st3{fill:#098BD1;}
	.st4{fill:#1A1A1A;}
</style>
<title>logo CR for web</title>
<g>
	<g id="ASSETS_Obszar_kompozycji_1_Obraz">
		<g id="logo_CR_for_web">
			<path class="st0" d="M160.9,160.9v-55.6c-80.3,0-145.3,65.1-145.4,145.3c0,0,0,0,0,0h55.6C71.1,201.1,111.3,160.9,160.9,160.9"/>
			<path class="st1" d="M160.9,340.5v55.6c80.3,0,145.3-65.1,145.3-145.3h-55.6C250.7,300.3,210.5,340.5,160.9,340.5"/>
			<path class="st1" d="M263.6,148c-4.3-0.6-8.6-1-12.9-1c-28,0-54.3,13.1-71.2,35.3h-18.5L104,239.1c18,7.6,37.3,11.6,56.9,11.6
				c0,19.5,3.9,38.9,11.5,56.8l56.9-56.8v-18.5c22.2-16.9,35.3-43.3,35.3-71.3C264.6,156.6,264.2,152.3,263.6,148 M169.7,241.9
				c-0.1-1.7-0.3-3.4-0.3-5.1c0-44.9,36.3-81.2,81.2-81.2c0,0,0,0,0,0c1.7,0,3.4,0.1,5.1,0.3L169.7,241.9z"/>
			<path class="st2" d="M104.5,257.2L7.6,404l146.8-96.8C145.3,284.4,127.2,266.3,104.5,257.2 M37.7,373.9L107.6,268
				c7.7,3.9,14.8,9,20.9,15.1L37.7,373.9z"/>
			<path class="st3" d="M81.3,292.2c-6.7-12.8-10.2-27.1-10.2-41.5H15.5c0,33.4,11.5,65.8,32.6,91.7L81.3,292.2z"/>
			<path class="st3" d="M119.4,330.3l-50.3,33.1c25.9,21.1,58.3,32.7,91.7,32.7v-55.5C146.4,340.5,132.2,337,119.4,330.3"/>
			<path class="st4" d="M425.3,170.5c0,20.5-9.7,29.2-32,29.2s-31.2-8.6-31.2-28v-38.1c0-19.8,8.6-28,31.2-28c22.6,0,32,8.3,32,29
				h-16.8c0-9.1-2.2-14.2-15.2-14.2c-12.2,0-14.5,5.1-14.5,14v36.3c0,8.9,2.3,14,14.5,14s15.2-5.1,15.2-14.3L425.3,170.5z"/>
			<path class="st4" d="M472.9,199.4v-45.1c0-8.8-3.5-11.9-10.5-12c-7.2,0-10.7,3.9-10.7,11.9v45.2h-16.7v-93.6h16.7v27.6
				c3.6-4.5,9.4-6.4,15.1-6.4c15.6,0,22.7,9.8,22.7,25.3v47.1H472.9z"/>
			<path class="st4" d="M500,172.1v-16.7c0-18.8,9.1-28,28-28c18.8,0,28,8.6,28,28v44h-14l-1.3-7.9c-2.8,5.1-8.7,8.3-16.9,8.3
				C509.7,199.8,500,192,500,172.1 M528,142.3c-8.8,0-10.9,5.1-10.9,14v14.9c0,10.3,4.1,13.7,10.7,13.7c8.3,0,11.2-6.1,11.2-14.4
				v-14.3C539,147.4,536.8,142.3,528,142.3"/>
			<path class="st4" d="M567.7,105.7h16.7v67.2c0,7.9,1.5,10.4,8.4,10.4v16.1c-19.3,0-25-5.7-25-26.3V105.7z"/>
			<path class="st4" d="M601.5,105.7h16.6v67.2c0,7.9,1.5,10.4,8.4,10.4v16.1c-19.3,0-25-5.7-25-26.3V105.7z"/>
			<path class="st4" d="M689.7,177.4c0,15.1-9,22.2-27.8,22.2c-18.9,0-27.8-8.6-27.8-28v-16.3c0-18,9-28,27.8-28s27.8,8.6,27.8,28
				v14.2h-38.9v1.8c0,11.5,4.5,13.7,11.3,13.7c7.9,0,11.2-2.8,11.2-7.8H689.7z M650.8,155.9h22.7c0-8.9-1.7-14-11.2-14
				C652.5,141.9,650.8,147.2,650.8,155.9"/>
			<path class="st4" d="M701.4,127.7h14.5l0.9,7.3c4.2-5,10.4-7.8,16.9-7.8c11.8-0.1,23.3,6.1,23.3,28v44.2h-16.6v-44.1
				c0-9.2-3.9-13-10.8-13c-6.4,0-11.5,3.2-11.5,12.4v44.7h-16.6V127.7z"/>
			<path class="st4" d="M767.6,172.9v-17.8c0-19.9,9.2-27.7,23.3-27.7c8.1,0,13.5,3.2,16.3,8.3l1.3-7.9h13.7v73.5
				c0,18.6-9.7,27.5-27.1,27.5s-25.9-7.6-25.9-22.7h15.9c0,5.6,3.3,8.5,10,8.5c8.7,0,11.5-4.5,11.5-13.4v-8.7
				c-2.5,3.9-6.8,7.3-15.2,7.3C776.5,199.8,767.6,191.4,767.6,172.9 M805.8,170.5v-14c0-8.3-2.7-14.3-10.9-14.3
				c-6.6,0-10.6,3.4-10.6,13.7v15c0,10.1,3.4,14.2,10.3,14.2C803.1,185.1,805.8,179.6,805.8,170.5"/>
			<path class="st4" d="M887.6,177.4c0,15.1-9,22.2-27.8,22.2c-18.8,0-27.9-8.6-27.9-28v-16.3c0-18,9-28,27.8-28
				c18.8,0,27.8,8.6,27.8,28v14.2h-38.8v1.8c0,11.5,4.5,13.7,11.3,13.7c7.9,0,11.2-2.8,11.2-7.8H887.6z M848.7,155.9h22.7
				c0-8.9-1.7-14-11.2-14C850.4,141.9,848.7,147.2,848.7,155.9"/>
			<path class="st4" d="M403.7,318.7l-18.6-32.9h-6.2v32.9h-16.8v-93.5h23.6c22.6,0,33.2,8.3,33.2,28v4.9c0,13.9-4.9,21.4-16.2,25
				l20.5,35.6L403.7,318.7z M385.7,270.3c12.2,0,15.6-4.3,15.6-13.1V254c0-8.9-2.3-13.5-15.3-13.5h-7.2v29.8H385.7z"/>
			<path class="st4" d="M428.6,291.9v-17.3c0-18.8,9-28,27.8-28c18.8,0,27.8,8.6,27.8,28v17.3c0,19.3-9,28-27.8,28
				S428.6,311.2,428.6,291.9 M467.5,291.1v-15.6c0-8.9-2.3-14-11.1-14c-8.8,0-11.1,5.1-11.1,14v15.6c0,8.9,2.3,14,11.1,14
				S467.5,300,467.5,291.1"/>
			<path class="st4" d="M533.3,273.7c0-8.1-2.9-12.2-11.2-12.2c-9.2,0-11.9,5.1-11.9,14v15.6c0,8.9,2.3,14,11.1,14
				c8.8,0,11.9-3.8,12-12.3h15.8c0,19.3-9,27.1-27.8,27.1c-18.8,0-27.8-8.6-27.8-28.3v-16.1c0-19.3,9.5-28.8,28.3-28.8
				c18.9,0,27.3,7.7,27.3,27H533.3z"/>
			<polygon class="st4" points="599.6,318.7 579.6,287.6 574.9,287.6 574.9,318.7 558.2,318.7 558.2,224.8 574.9,224.8 574.9,272.5 
				579.4,272.5 597.1,246.9 615.8,246.9 592.9,279.2 618.3,318.7 			"/>
			<path class="st4" d="M676.1,296.7c0,15.1-9,22.3-27.8,22.3c-18.8,0-27.8-8.6-27.8-28v-16.2c0-18,9-28,27.8-28
				c18.8,0,27.8,8.6,27.8,28v14.2h-38.9v1.8c0,11.5,4.5,13.7,11.3,13.7c7.9,0,11.2-2.8,11.2-7.8H676.1z M637.2,275.1h22.7
				c0-8.9-1.7-14-11.2-14C638.9,261.1,637.2,266.5,637.2,275.1"/>
			<path class="st4" d="M686.7,234.6l16.6-1.8v14h12.2V262h-12.2v30.3c0,7.9,1.3,13.2,12.4,11.9v14.6c-21.1,2.3-29-5-29-26.3
				L686.7,234.6z"/>
			<path class="st1" d="M354.3,413c0,12.2-18.8,12.3-18.8,0C335.5,400.7,354.3,400.7,354.3,413"/>
			<path class="st1" d="M401.8,376.7c0-8.1-2.9-12.2-11.2-12.2c-9.2,0-11.9,5.1-11.9,14v15.6c0,8.9,2.3,14,11.1,14s11.9-3.8,12-12.3
				h15.8c0,19.3-9,27.1-27.8,27.1c-18.8,0-27.8-8.6-27.8-28.3v-16.1c0-19.3,9.5-28.8,28.3-28.8c18.8,0,27.4,7.6,27.4,27H401.8z"/>
			<path class="st1" d="M426.5,395v-17.3c0-18.8,9-28,27.8-28s27.8,8.6,27.8,28V395c0,19.3-9,28-27.8,28S426.5,414.3,426.5,395
				 M465.4,394.1v-15.6c0-8.9-2.3-14-11.1-14s-11.1,5.1-11.1,14v15.6c0,8.9,2.3,14,11.1,14S465.4,403,465.4,394.1"/>
			<path class="st1" d="M493.4,350h14.5l1.1,7.3c4.1-5.1,10.4-8,16.9-7.6c7,0,14.2,2.3,17.6,9.1c3.8-5.6,11.3-9.2,20.4-9.2
				c14.8,0,23.7,8.6,23.7,28v44.1h-16.6v-44.1c0-9.2-3.8-13-10.7-13c-6.4,0-11,2.7-11.3,12.9v44.2h-16.7v-44.1c0-9.2-3.8-13-10.7-13
				c-6.4,0-11.6,3.1-11.6,12.4v44.7h-16.7V350z"/>
		</g>
	</g>
</g>
</svg>
